<?xml version="1.0" standalone="no"?>
<!DOCTYPE svg PUBLIC "-//W3C//DTD SVG 20010904//EN"
 "http://www.w3.org/TR/2001/REC-SVG-20010904/DTD/svg10.dtd">
<svg version="1.0" xmlns="http://www.w3.org/2000/svg"
 width="600.000000pt" height="600.000000pt" viewBox="0 0 600.000000 600.000000"
 preserveAspectRatio="xMidYMid meet">
<metadata>
Created by potrace 1.14, written by Peter Selinger 2001-2017
</metadata>
<g transform="translate(0.000000,600.000000) scale(0.100000,-0.100000)"
fill="#000000" stroke="none">
<path d="M1620 5412 c-393 -30 -701 -195 -884 -472 l-43 -65 -89 -22 c-129
-31 -256 -88 -310 -137 -58 -53 -68 -89 -42 -147 38 -87 108 -118 298 -134
277 -23 810 -183 939 -282 2 -1 5 -49 7 -106 2 -100 11 -219 20 -282 27 -180
57 -291 106 -388 27 -54 92 -137 107 -137 4 0 13 24 20 53 103 420 254 775
367 863 61 48 80 49 97 5 l15 -36 -57 -60 c-76 -80 -114 -132 -108 -147 3 -7
26 -24 53 -38 26 -14 95 -51 152 -82 57 -32 106 -58 107 -58 2 0 101 -59 222
-131 982 -591 1689 -1221 2058 -1835 36 -60 65 -114 65 -122 0 -7 -9 -25 -19
-40 -40 -55 -164 -281 -236 -427 -84 -171 -137 -301 -161 -395 -19 -74 -23
-185 -7 -201 22 -22 97 37 194 156 26 32 48 45 103 63 39 13 108 42 153 63 79
39 100 58 194 168 15 17 36 31 48 31 11 0 44 -21 73 -46 64 -58 122 -84 193
-89 43 -2 76 -14 152 -55 54 -29 125 -71 158 -92 70 -47 155 -126 155 -145 0
-7 6 -13 14 -13 18 0 30 34 27 75 -2 38 -31 147 -42 160 -5 5 -9 15 -9 23 0
22 -79 173 -132 252 -141 208 -314 384 -513 519 l-90 62 -2 192 c0 106 -4 233
-7 282 -51 752 -383 1523 -896 2079 -106 115 -279 281 -365 349 -26 21 -105
84 -127 102 -21 17 -17 66 13 158 57 180 181 318 326 364 29 9 60 25 69 34 15
16 13 19 -23 41 -40 26 -128 60 -203 79 -96 24 -275 18 -425 -15 -106 -24
-275 -108 -409 -204 -32 -23 -51 -31 -59 -24 -12 9 -178 72 -292 110 -137 47
-407 108 -550 127 -111 14 -327 23 -405 17z"/>
</g>
</svg>
